# xmcd
# Track frame offsets:
# 150
# 21708
# 35511
# 54620
# 75399
# 88078
# 107725
# 128446
# 147392
# 163522
# 182316
# 202746
# 223053
# 237009
# 252275
# 267746
# 286096
# 305850
#
# Disc length: 4392 seconds
# Revision: 0
# Processed by: cddbd v1.5.1PL2 Copyright (c) Steve Scherf et al.
# Submitted via: VisiTrax 2.9.10.228 - For more info visit www.synapsa.com
#
DISCID=fe112612
DTITLE=Various Artist - Trouble In The Fields
DYEAR=2000
DGENRE=Country
TTITLE0=Crosby Sisters - Trouble In The Fields
TTITLE1=John Williamson - Woman On The Land
TTITLE2=Pamela drysdale - The Wheatfield
TTITLE3=Grant Richardson - Huey
TTITLE4=Colin Buchanan - The Local District Show
TTITLE5=Norma O'Hara Murphy - Closer Now To Rain
TTITLE6=Darren Coggan - The Heartland
TTITLE7=Felicity - Country Girl
TTITLE8=Peter Denahy - Will You Help Me Burn A Dead Cow Missus
TTITLE9=Anne Kirkpatrick - The Heart Of The Land
TTITLE10=Colin Buchanan - living In Town
TTITLE11=Tania and Lee Kernaghan - A Bushman Can't Survive
TTITLE12=Kedron Taylor - Two Weeks Of Rain
TTITLE13=Dead Ringer Band - Family Man
TTITLE14=Deniese Morrison - He Loves The Land
TTITLE15=Wayne Law - Modern Day Drover's Wife
TTITLE16=Flying Emus - Auctioneer
TTITLE17=Noel Watson - Waltzing Matilda
EXTD=Songs Of The Land #1\nSOTL - 01
EXTT0=
EXTT1=
EXTT2=
EXTT3=
EXTT4=
EXTT5=
EXTT6=
EXTT7=
EXTT8=
EXTT9=
EXTT10=
EXTT11=
EXTT12=
EXTT13=
EXTT14=
EXTT15=
EXTT16=
EXTT17=
PLAYORDER=
